<svg width="24" height="25" viewBox="0 0 24 25" fill="none" xmlns="http://www.w3.org/2000/svg">
<path opacity="0.2" d="M21.8125 8.34375H14.5938V1.125L21.8125 8.34375Z" fill="black"/>
<path d="M23.875 16.5938C23.875 16.8673 23.7664 17.1296 23.573 17.323C23.3796 17.5164 23.1173 17.625 22.8438 17.625H19.75V19.6875H21.8125C22.086 19.6875 22.3483 19.7961 22.5417 19.9895C22.7351 20.1829 22.8438 20.4452 22.8438 20.7188C22.8438 20.9923 22.7351 21.2546 22.5417 21.448C22.3483 21.6414 22.086 21.75 21.8125 21.75H19.75V23.8125C19.75 24.086 19.6414 24.3483 19.448 24.5417C19.2546 24.7351 18.9923 24.8438 18.7188 24.8438C18.4452 24.8438 18.1829 24.7351 17.9895 24.5417C17.7961 24.3483 17.6875 24.086 17.6875 23.8125V16.5938C17.6875 16.3202 17.7961 16.0579 17.9895 15.8645C18.1829 15.6711 18.4452 15.5625 18.7188 15.5625H22.8438C23.1173 15.5625 23.3796 15.6711 23.573 15.8645C23.7664 16.0579 23.875 16.3202 23.875 16.5938ZM6.85938 19.1719C6.85938 20.1291 6.4791 21.0472 5.80221 21.7241C5.12532 22.401 4.20727 22.7812 3.25 22.7812H2.21875V23.8125C2.21875 24.086 2.1101 24.3483 1.9167 24.5417C1.72331 24.7351 1.461 24.8438 1.1875 24.8438C0.913996 24.8438 0.651693 24.7351 0.458296 24.5417C0.264899 24.3483 0.15625 24.086 0.15625 23.8125V16.5938C0.15625 16.3202 0.264899 16.0579 0.458296 15.8645C0.651693 15.6711 0.913996 15.5625 1.1875 15.5625H3.25C4.20727 15.5625 5.12532 15.9428 5.80221 16.6197C6.4791 17.2965 6.85938 18.2146 6.85938 19.1719ZM4.79688 19.1719C4.79688 18.7616 4.6339 18.3682 4.34381 18.0781C4.05371 17.788 3.66026 17.625 3.25 17.625H2.21875V20.7188H3.25C3.66026 20.7188 4.05371 20.5558 4.34381 20.2657C4.6339 19.9756 4.79688 19.5821 4.79688 19.1719ZM16.1406 20.2031C16.1406 21.4339 15.6517 22.6143 14.7814 23.4845C13.9111 24.3548 12.7308 24.8438 11.5 24.8438H9.4375C9.164 24.8438 8.90169 24.7351 8.7083 24.5417C8.5149 24.3483 8.40625 24.086 8.40625 23.8125V16.5938C8.40625 16.3202 8.5149 16.0579 8.7083 15.8645C8.90169 15.6711 9.164 15.5625 9.4375 15.5625H11.5C12.7308 15.5625 13.9111 16.0514 14.7814 16.9217C15.6517 17.792 16.1406 18.9724 16.1406 20.2031ZM14.0781 20.2031C14.0781 19.5194 13.8065 18.8636 13.323 18.3801C12.8395 17.8966 12.1838 17.625 11.5 17.625H10.4688V22.7812H11.5C12.1838 22.7812 12.8395 22.5096 13.323 22.0261C13.8065 21.5426 14.0781 20.8869 14.0781 20.2031ZM0.15625 11.4375V2.15625C0.15625 1.60924 0.373548 1.08464 0.760342 0.697842C1.14714 0.311049 1.67174 0.0937503 2.21875 0.0937503H14.5938C14.7292 0.0936438 14.8634 0.120228 14.9886 0.171985C15.1138 0.223741 15.2275 0.299655 15.3234 0.395391L22.5421 7.61414C22.6378 7.70998 22.7138 7.82375 22.7655 7.94894C22.8173 8.07413 22.8439 8.20828 22.8438 8.34375V11.4375C22.8438 11.711 22.7351 11.9733 22.5417 12.1667C22.3483 12.3601 22.086 12.4688 21.8125 12.4688C21.539 12.4688 21.2767 12.3601 21.0833 12.1667C20.8899 11.9733 20.7812 11.711 20.7812 11.4375V9.375H14.5938C14.3202 9.375 14.0579 9.26635 13.8645 9.07295C13.6711 8.87956 13.5625 8.61725 13.5625 8.34375V2.15625H2.21875V11.4375C2.21875 11.711 2.1101 11.9733 1.9167 12.1667C1.72331 12.3601 1.461 12.4688 1.1875 12.4688C0.913996 12.4688 0.651693 12.3601 0.458296 12.1667C0.264899 11.9733 0.15625 11.711 0.15625 11.4375ZM15.625 7.3125H19.3233L15.625 3.61418V7.3125Z" fill="black"/>
</svg>
