<svg width="25" height="25" viewBox="0 0 25 25" fill="none" xmlns="http://www.w3.org/2000/svg">
<path d="M12.5 19.375L10.4375 21.4375C9.52574 22.349 8.28927 22.8611 7.00001 22.8611C5.71075 22.8611 4.47427 22.349 3.56251 21.4375C2.65098 20.5257 2.13892 19.2893 2.13892 18C2.13892 16.7107 2.65098 15.4743 3.56251 14.5625L7.68751 10.4375C8.59927 9.52599 9.83575 9.01392 11.125 9.01392C12.4143 9.01392 13.6507 9.52599 14.5625 10.4375" stroke="black" stroke-width="3" stroke-linecap="round"/>
<path d="M12.5 5.62501L14.5625 3.56251C15.4743 2.65098 16.7107 2.13892 18 2.13892C19.2893 2.13892 20.5257 2.65098 21.4375 3.56251C22.349 4.47427 22.8611 5.71075 22.8611 7.00001C22.8611 8.28927 22.349 9.52574 21.4375 10.4375L17.3125 14.5625C16.4007 15.474 15.1643 15.9861 13.875 15.9861C12.5857 15.9861 11.3493 15.474 10.4375 14.5625" stroke="black" stroke-width="3" stroke-linecap="round"/>
</svg>
